<svg xmlns="http://www.w3.org/2000/svg" width="2480" height="3508" version="1.1">

   <rect x="60" y="64" width="590" height="1690" stroke="black" fill="gray"/>
   <rect x="650" y="64" width="590" height="1690" stroke="black" fill="gray"/>
   <rect x="1240" y="64" width="590" height="1690" stroke="black" fill="gray"/>
   <rect x="1830" y="64" width="590" height="1690" stroke="black" fill="gray"/>
   <rect x="60" y="1754" width="590" height="1690" stroke="black" fill="gray"/>
   <rect x="650" y="1754" width="590" height="1690" stroke="black" fill="gray"/>
   <rect x="1240" y="1754" width="590" height="1690" stroke="black" fill="gray"/>
   <rect x="1830" y="1754" width="590" height="1690" stroke="black" fill="gray"/>

   <rect x="70" y="74" width="570" height="570" stroke="black" fill="red"/>
   <rect x="660" y="74" width="570" height="570" stroke="black" fill="red"/>
   <rect x="1250" y="74" width="570" height="570" stroke="black" fill="red"/>
   <rect x="1840" y="74" width="570" height="570" stroke="black" fill="red"/>
   <rect x="70" y="1764" width="570" height="570" stroke="black" fill="red"/>
   <rect x="660" y="1764" width="570" height="570" stroke="black" fill="red"/>
   <rect x="1250" y="1764" width="570" height="570" stroke="black" fill="red"/>
   <rect x="1840" y="1764" width="570" height="570" stroke="black" fill="red"/>

   <text x="355" y="704" text-anchor="middle" font-weight="bold" font-size="60px" fill="red">123456789ABCD</text>
   <text x="945" y="704" text-anchor="middle" font-weight="bold" font-size="60px" fill="red">123456789ABCD</text>
   <text x="1535" y="704" text-anchor="middle" font-weight="bold" font-size="60px" fill="red">123456789ABCD</text>
   <text x="2125" y="704" text-anchor="middle" font-weight="bold" font-size="60px" fill="red">123456789ABCD</text>
   <text x="355" y="2394" text-anchor="middle" font-weight="bold" font-size="60px" fill="red">123456789ABCD</text>
   <text x="945" y="2394" text-anchor="middle" font-weight="bold" font-size="60px" fill="red">123456789ABCD</text>
   <text x="1535" y="2394" text-anchor="middle" font-weight="bold" font-size="60px" fill="red">123456789ABCD</text>
   <text x="2125" y="2394" text-anchor="middle" font-weight="bold" font-size="60px" fill="red">123456789ABCD</text>

   <rect x="70" y="724" width="570" height="1020" stroke="black" fill="blue"/>
   <rect x="660" y="724" width="570" height="1020" stroke="black" fill="blue"/>
   <rect x="1250" y="724" width="570" height="1020" stroke="black" fill="blue"/>
   <rect x="1840" y="724" width="570" height="1020" stroke="black" fill="blue"/>
   <rect x="70" y="2414" width="570" height="1020" stroke="black" fill="blue"/>
   <rect x="660" y="2414" width="570" height="1020" stroke="black" fill="blue"/>
   <rect x="1250" y="2414" width="570" height="1020" stroke="black" fill="blue"/>
   <rect x="1840" y="2414" width="570" height="1020" stroke="black" fill="blue"/>

</svg>