<?xml version="1.0" encoding="UTF-8" standalone="no"?>
<!-- Created with Inkscape (http://www.inkscape.org/) -->

<svg
   xmlns:osb="http://www.openswatchbook.org/uri/2009/osb"
   xmlns:dc="http://purl.org/dc/elements/1.1/"
   xmlns:cc="http://creativecommons.org/ns#"
   xmlns:rdf="http://www.w3.org/1999/02/22-rdf-syntax-ns#"
   xmlns:svg="http://www.w3.org/2000/svg"
   xmlns="http://www.w3.org/2000/svg"
   xmlns:sodipodi="http://sodipodi.sourceforge.net/DTD/sodipodi-0.dtd"
   xmlns:inkscape="http://www.inkscape.org/namespaces/inkscape"
   width="96"
   height="96"
   viewBox="0 0 12.7 12.7"
   version="1.1"
   id="svg8"
   sodipodi:docname="mode.svg"
   inkscape:export-filename="C:\Users\KundaPanda\Desktop\mode.png"
   inkscape:export-xdpi="96"
   inkscape:export-ydpi="96"
   inkscape:version="0.92.4 (5da689c313, 2019-01-14)">
  <defs
     id="defs2">
    <marker
       inkscape:stockid="Arrow1Lend"
       orient="auto"
       refY="0.0"
       refX="0.0"
       id="Arrow1Lend"
       style="overflow:visible;"
       inkscape:isstock="true">
      <path
         id="path5286"
         d="M 0.0,0.0 L 5.0,-5.0 L -12.5,0.0 L 5.0,5.0 L 0.0,0.0 z "
         style="fill-rule:evenodd;stroke:#202020;stroke-width:1pt;stroke-opacity:1;fill:#ffffff;fill-opacity:1"
         transform="scale(0.8) rotate(180) translate(12.5,0)" />
    </marker>
    <linearGradient
       id="linearGradient4684"
       osb:paint="solid">
      <stop
         style="stop-color:#000000;stop-opacity:1;"
         offset="0"
         id="stop4682" />
    </linearGradient>
    <filter
       inkscape:collect="always"
       style="color-interpolation-filters:sRGB"
       id="filter5076-0"
       x="-0.0012000001"
       width="1.0024"
       y="-0.0012000001"
       height="1.0024">
      <feGaussianBlur
         inkscape:collect="always"
         stdDeviation="0.0061648154"
         id="feGaussianBlur5078-0" />
    </filter>
  </defs>
  <sodipodi:namedview
     id="base"
     pagecolor="#ffffff"
     bordercolor="#666666"
     borderopacity="1.0"
     inkscape:pageopacity="0.0"
     inkscape:pageshadow="2"
     inkscape:zoom="5.6"
     inkscape:cx="43.868903"
     inkscape:cy="49.334894"
     inkscape:document-units="mm"
     inkscape:current-layer="layer3"
     showgrid="false"
     units="px"
     scale-x="0.5"
     inkscape:window-width="1600"
     inkscape:window-height="837"
     inkscape:window-x="-8"
     inkscape:window-y="328"
     inkscape:window-maximized="1" />
  <metadata
     id="metadata5">
    <rdf:RDF>
      <cc:Work
         rdf:about="">
        <dc:format>image/svg+xml</dc:format>
        <dc:type
           rdf:resource="http://purl.org/dc/dcmitype/StillImage" />
        <dc:title></dc:title>
      </cc:Work>
    </rdf:RDF>
  </metadata>
  <g
     inkscape:label="Layer 1"
     inkscape:groupmode="layer"
     id="layer1"
     transform="translate(0,-271.59997)">
    <path
       sodipodi:type="star"
       id="path3715-6"
       sodipodi:sides="8"
       sodipodi:cx="6.3499999"
       sodipodi:cy="277.94998"
       sodipodi:r1="6.1648154"
       sodipodi:r2="4.6852598"
       sodipodi:arg1="0"
       sodipodi:arg2="0.39269908"
       inkscape:flatsided="false"
       inkscape:rounded="8.6736174e-17"
       inkscape:randomized="0"
       d="m 12.514815,277.94998 -1.836199,1.79297 0.03057,2.56621 -2.5662118,-0.0306 -1.7929713,1.8362 -1.7929713,-1.8362 -2.5662115,0.0306 0.030567,-2.56621 -1.83619982,-1.79297 1.83619982,-1.79297 -0.030567,-2.56621 2.5662115,0.0306 1.7929713,-1.8362 1.7929713,1.8362 2.5662118,-0.0306 -0.03057,2.56621 z"
       style="fill:#fffbff;fill-opacity:1;fill-rule:nonzero;stroke:#202020;stroke-width:0.86733264;stroke-linecap:butt;stroke-linejoin:round;stroke-miterlimit:4;stroke-dasharray:none;stroke-opacity:1;paint-order:normal;"
       inkscape:transform-center-x="0.93695201"
       inkscape:transform-center-y="-1.1548482"
       transform="matrix(0.92236816,0,0,0.92236816,0.49296219,21.577757)" />
    <path
       inkscape:connector-curvature="0"
       id="path5194"
       d="m 3.0047698,280.13997 c -2.249e-4,-0.68048 -0.00153,-0.69965 -0.055419,-0.81538 -0.043412,-0.0932 -0.1925031,-0.25245 -0.6986971,-0.74621 l -0.6435087,-0.6277 0.6404361,-0.62395 c 0.4751499,-0.46292 0.6555317,-0.65411 0.6989278,-0.7408 l 0.058492,-0.11685 v -0.93682 -0.93683 l 0.906096,0.0116 0.9060959,0.0116 0.1392444,-0.0635 c 0.1203452,-0.0549 0.224213,-0.15028 0.7652675,-0.70294 l 0.6260231,-0.63946 0.5197172,0.52818 c 0.2858444,0.2905 0.5696613,0.57827 0.6307043,0.63949 0.2179252,0.21855 0.2162725,0.21817 1.0171251,0.23163 l 0.7028892,0.0118 -3.1065815,3.10646 -3.1065812,3.10646 -2.249e-4,-0.69686 z m 2.3095499,-1.97453 c 0.2273796,-0.047 0.2985726,-0.0836 0.3354063,-0.1725 0.068339,-0.16499 -0.041196,-0.30722 -0.2823744,-0.36667 -0.9161606,-0.22582 -1.3145501,-1.13785 -0.8092762,-1.85267 0.1782945,-0.25223 0.4548413,-0.42765 0.8092762,-0.51334 0.2142785,-0.0518 0.3071057,-0.12839 0.3071057,-0.25337 0,-0.16912 -0.1377142,-0.25102 -0.5079055,-0.30206 -0.4724679,-0.0651 -1.0144724,0.10677 -1.3739006,0.43578 -0.3782601,0.34624 -0.5796333,0.79363 -0.5808685,1.2905 -9.261e-4,0.37279 0.084471,0.66944 0.2806026,0.97475 0.3860352,0.60094 1.116212,0.90535 1.8219344,0.75958 z"
       style="fill:none;fill-opacity:1;fill-rule:nonzero;stroke:#202000;stroke-width:0.07776786;stroke-linecap:round;stroke-linejoin:round;stroke-miterlimit:4;stroke-dasharray:none;stroke-opacity:0;paint-order:normal" />
    <path
       transform="matrix(0.92236816,0,0,0.92236816,0.49296219,21.577757)"
       style="fill:#202020;fill-opacity:1;fill-rule:nonzero;stroke:#202020;stroke-width:0.10841658;stroke-linecap:butt;stroke-linejoin:round;stroke-miterlimit:4;stroke-dasharray:none;stroke-opacity:1;paint-order:normal"
       inkscape:transform-center-x="0.93695201"
       inkscape:transform-center-y="-1.1548482"
       d="m 1.9908201,282.30916 0.030567,-2.56621 -1.83619982,-1.79297 1.83619982,-1.79297 -0.030567,-2.56621 2.5662115,0.0306 1.7929713,-1.8362 1.7929713,1.8362 2.5662118,-0.0306 z"
       id="path5619"
       inkscape:connector-curvature="0"
       sodipodi:nodetypes="cccccccccc" />
  </g>
  <g
     inkscape:groupmode="layer"
     id="layer3"
     inkscape:label="icons">
    <circle
       transform="matrix(0.69492461,0.7190826,-0.69492461,0.7190826,0,-271.59996)"
       r="1.037194"
       cy="188.95818"
       cx="199.93672"
       id="path5188"
       style="fill:none;fill-opacity:1;fill-rule:nonzero;stroke:#202020;stroke-width:0.43562713;stroke-linecap:round;stroke-linejoin:round;stroke-miterlimit:4;stroke-dasharray:none;stroke-opacity:1;paint-order:normal" />
    <g
       style="stroke:#f7ffff;stroke-width:0.57407053;stroke-miterlimit:4;stroke-dasharray:none;stroke-opacity:1;fill:#202020;fill-opacity:1"
       transform="matrix(0.75861759,0,0,0.75861759,1.2276356,-206.00986)"
       id="g5192">
      <path
         transform="rotate(-71.303403)"
         style="fill:#202020;fill-opacity:1;fill-rule:nonzero;stroke:#f7ffff;stroke-width:0.57407051;stroke-linecap:round;stroke-linejoin:round;stroke-miterlimit:4;stroke-dasharray:none;stroke-opacity:1;paint-order:normal"
         d="m -263.31472,94.974606 a 2.0162194,2.0162194 0 0 1 -0.0346,-2.379436 2.0162194,2.0162194 0 0 1 2.25671,-0.755086 2.0162194,2.0162194 0 0 1 1.40434,1.921131"
         id="path5109" />
      <path
         transform="matrix(0.19181381,-0.98143133,0.98672605,0.16239366,0,0)"
         style="fill:#202020;fill-opacity:1;fill-rule:nonzero;stroke:#f7ffff;stroke-width:0.57419884;stroke-linecap:round;stroke-linejoin:round;stroke-miterlimit:4;stroke-dasharray:none;stroke-opacity:1;paint-order:normal"
         d="m -275.33643,59.111848 a 1.910385,2.0703795 0 0 1 1.57037,-2.055405 1.910385,2.0703795 0 0 1 2.13512,1.329226"
         id="path5155" />
    </g>
  </g>
</svg>
